<?xml version="1.0" encoding="UTF-8" standalone="no"?>
<svg
   xmlns:dc="http://purl.org/dc/elements/1.1/"
   xmlns:cc="http://creativecommons.org/ns#"
   xmlns:rdf="http://www.w3.org/1999/02/22-rdf-syntax-ns#"
   xmlns:svg="http://www.w3.org/2000/svg"
   xmlns="http://www.w3.org/2000/svg"
   viewBox="0 0 682.66669 682.66669"
   height="682.66669"
   width="682.66669"
   xml:space="preserve"
   id="svg2"
   version="1.1"><metadata
     id="metadata8"><rdf:RDF><cc:Work
         rdf:about=""><dc:format>image/svg+xml</dc:format><dc:type
           rdf:resource="http://purl.org/dc/dcmitype/StillImage" /></cc:Work></rdf:RDF></metadata><defs
     id="defs6" /><g
     transform="matrix(1.3333333,0,0,-1.3333333,0,682.66667)"
     id="g10"><g
       id="g12"><path
         id="path14"
         style="fill:#ffca4f;fill-opacity:1;fill-rule:nonzero;stroke:none"
         d="M 255.99899,0 C 397,0 512,115 512,256.00101 512,397 397,512 255.99899,512 115,512 0,397 0,256.00101 0,115 115,0 255.99899,0 Z" /></g><g
       transform="translate(101.0033,-17.573303)"
       id="g16"><path
         id="path18"
         style="fill:#77b860;fill-opacity:1;fill-rule:nonzero;stroke:none"
         d="M 268.74271,99.544312 248.8017,185.0033 c 0,0 68.23501,65.651 60.58401,149.807 -7.651,84.15399 -92.45102,137.07199 -178.51901,114.129 C 44.794701,425.99829 30.537706,357.04431 30.134706,345.73331 29.728706,334.42029 40.334709,305.49329 32.678711,285.72632 25.02771,265.9603 -2.382297,235.03929 0.166703,225.79629 c 2.553,-9.24 26.141,-10.837 26.141,-10.837 0,0 0.276005,-8.941 -2.856995,-10.83899 -3.136999,-1.896 -1.368999,-9.32901 3.792,-13.461 5.157,-4.13599 13.735991,-6.94101 13.735991,-6.94101 0,0 -9.886002,-2.23098 -8.608002,-9.24499 1.278999,-7.01599 4.782013,-10.52402 12.116013,-10.83701 7.331001,-0.32001 9.246997,3.17703 10.516998,-0.64798 1.273998,-3.82101 2.076996,-4.138 2.076996,-4.138 0,0 -7.327,-18.96802 -0.947998,-32.99301 6.381,-14.02701 16.255996,-14.03799 27.735,-11.16299 11.481003,2.875 33.793994,9.24899 33.793994,9.24899 l 6.10701,-31.108003 C 130.1537,47.56131 99.325706,24.287292 98.673706,23.802307 116.79971,19.734314 135.64169,17.573303 154.9957,17.573303 c 57.013,0 109.664,18.644013 152.211,50.160004 -4.10501,1.976013 -36.999,30.346985 -38.461,31.80899 h -0.003 v 0.002 z" /></g><g
       transform="translate(159.24,36.63501)"
       id="g20"><path
         id="path22"
         style="fill:#528d51;fill-opacity:1;fill-rule:nonzero;stroke:none"
         d="M 0,67.717987 C 6.35,57.654984 15.347997,57.912975 25.630997,60.487976 37.111996,63.362976 59.424988,69.737 59.424988,69.737 l 6.10701,-31.108002 C 67.709999,23.18 65.553986,10.294998 61.743988,0 l 0.007,0.006989 c 21.312,30.408996 5.594013,53.650001 8.398014,65.190002 C 72.956001,76.736992 117.555,87.653 126.912,94.828003 c 9.357,7.175007 16.06,26.975987 16.06,26.975987 0,0 -9.357,-14.34699 -19.336,-23.079991 C 113.657,89.992996 36.152996,67.227974 21.337997,62.237976 7.270997,57.499977 0.633,66.771988 0,67.717987 Z" /></g><g
       transform="translate(210.70399,64.395691)"
       id="g24"><path
         id="path26"
         style="fill:#528d51;fill-opacity:1;fill-rule:nonzero;stroke:none"
         d="m 0.001007,359.87631 c 53.604,19.64102 117.094003,9.04599 155.606003,-30.33899 C 201.496,282.60333 212.19,197.20331 132.05299,106.83832 L 159.04201,17.573303 139.101,103.03232 c 0,0 68.23501,65.651 60.58401,149.807 -7.651,84.154 -92.45101,137.072 -178.51901,114.129 C 13.559,364.94031 6.524,362.5473 0,359.87332 v 0.003 h 0.001007 z" /></g><g
       transform="translate(221.144,264.30402)"
       id="g28"><path
         id="path30"
         style="fill:#ffffff;fill-opacity:1;fill-rule:nonzero;stroke:none"
         d="m 50.494003,125.356 c 27.889,0 50.499997,-23.10701 50.499997,-51.609006 0,-19.288002 -10.352002,-36.101997 -25.686001,-44.959 V 5.128006 C 75.307999,2.306007 73.051994,0 70.289993,0 H 33.27301 c -2.769001,0 -5.018005,2.304008 -5.018005,5.128006 v 22.278 C 11.518005,35.811005 0,53.402992 0,73.746994 0,102.24899 22.611015,125.356 50.500015,125.356 h -0.006 v 0 z" /></g><g
       transform="translate(252.16099,246.10699)"
       id="g32"><path
         id="path34"
         style="fill:#fbb429;fill-opacity:1;fill-rule:nonzero;stroke:none"
         d="M 4.041001,18.872009 H 34.91301 c 2.224998,0 4.044006,-1.415012 4.044006,-3.146011 0,-1.731 -1.819008,-3.143997 -4.044006,-3.143997 2.224998,0 4.044006,-1.417996 4.044006,-3.145996 0,-1.729 -1.819008,-3.145996 -4.044006,-3.145996 2.224998,0 4.044006,-1.413013 4.044006,-3.144013 V 3.144016 C 38.957016,1.413013 37.138008,0 34.91301,0 H 4.041001 C 1.819001,0 0,1.413013 0,3.144012 v 0.00198 c 0,1.731 1.819001,3.144013 4.041001,3.144013 -2.222,4e-6 -4.041001,1.418 -4.041001,3.146 0,1.731 1.819001,3.145996 4.041001,3.145996 -2.222,0 -4.041001,1.414997 -4.041001,3.143997 -0.001,1.730999 1.818001,3.146011 4.041001,3.146011 z" /></g><g
       transform="translate(254.826,270.698)"
       id="g36"><path
         id="path38"
         style="fill:#fbb429;fill-opacity:1;fill-rule:nonzero;stroke:none"
         d="M 2.914993,68.637009 10.935989,3.332001 h 5.876007 5.873993 L 30.709,68.637009 33.625992,68.181 25.427994,1.438004 25.249008,0 H 23.968002 16.810989 9.654007 8.374008 L 8.197983,1.438004 0,68.181 2.917007,68.637009 h -0.00201 z" /></g><g
       transform="translate(242.589,328.92102)"
       id="g40"><path
         id="path42"
         style="fill:#fbb429;fill-opacity:1;fill-rule:nonzero;stroke:none"
         d="M 33.837997,18.725998 32.770981,11.418991 60.201004,15.51799 23.020981,0 24.389999,10.049988 0,5.423996 33.839981,18.725998 h -0.002 z" /></g><g
       transform="translate(253.21001,231.97101)"
       id="g44"><path
         id="path46"
         style="fill:#ffffff;fill-opacity:1;fill-rule:nonzero;stroke:none"
         d="M 16.039993,0.925995 V 0 h -3.058014 v 0.925995 h -1.174987 c -1.166001,0 -2.183013,0.735983 -2.657013,1.794983 H 9.056992 c -1.623001,0 -2.94101,1.422002 -2.94101,3.164001 0,1.111 0.534003,2.086011 1.341003,2.648011 H 2.940994 C 1.317994,8.53299 0,9.952991 0,11.696991 c 0,1.74 1.317994,3.160004 2.940994,3.160004 h 30.971009 c 1.623001,0 2.940979,-1.420004 2.940979,-3.160004 0,-1.746 -1.318978,-3.164001 -2.940979,-3.164001 h -4.518006 c 0.806999,-0.56 1.342987,-1.537011 1.342987,-2.648011 0,-1.741999 -1.320982,-3.164001 -2.936981,-3.164001 h -0.09302 c -0.478,-1.061 -1.489995,-1.794983 -2.658996,-1.794983 H 23.814985 V 0 h -3.056 v 0.925995 h -4.725006 0.006 z" /></g></g></svg>