<?xml version="1.0" encoding="UTF-8" standalone="no"?>
<svg
   xmlns:dc="http://purl.org/dc/elements/1.1/"
   xmlns:cc="http://creativecommons.org/ns#"
   xmlns:rdf="http://www.w3.org/1999/02/22-rdf-syntax-ns#"
   xmlns:svg="http://www.w3.org/2000/svg"
   xmlns="http://www.w3.org/2000/svg"
   viewBox="0 0 682.66669 682.66669"
   height="682.66669"
   width="682.66669"
   xml:space="preserve"
   id="svg2"
   version="1.1"><metadata
     id="metadata8"><rdf:RDF><cc:Work
         rdf:about=""><dc:format>image/svg+xml</dc:format><dc:type
           rdf:resource="http://purl.org/dc/dcmitype/StillImage" /></cc:Work></rdf:RDF></metadata><defs
     id="defs6" /><g
     transform="matrix(1.3333333,0,0,-1.3333333,0,682.66667)"
     id="g10"><g
       id="g12"><path
         id="path14"
         style="fill:#68b867;fill-opacity:1;fill-rule:nonzero;stroke:none"
         d="M 256,512 C 397.38501,512 512,397.38501 512,256 512,114.61499 397.38501,0 256,0 114.615,0 0,114.61499 0,256 0,397.38501 114.615,512 256,512 Z" /></g><g
       transform="translate(151,176.41904)"
       id="g16"><path
         id="path18"
         style="fill:#666666;fill-opacity:1;fill-rule:nonzero;stroke:none"
         d="M 218.2468,125.58096 221,61.440941 C 160.34711,8e-6 50.935387,6.621613 0.260151,59.484528 L 0,122.15536 104.78005,78.69722 218.24139,125.58096 h 0.005 z" /></g><g
       transform="translate(75,250)"
       id="g20"><path
         id="path22"
         style="fill:#807d7d;fill-opacity:1;fill-rule:nonzero;stroke:none"
         d="M 0,63.497833 181,127 362,63.497833 181,0 Z" /></g><g
       transform="translate(121,217.83935)"
       id="g24"><path
         id="path26"
         style="fill:#ffca4f;fill-opacity:1;fill-rule:nonzero;stroke:none"
         d="M 137.25857,113.15435 16.008398,79.746735 c -1.189879,-0.207154 -1.82145,-0.885636 -1.716905,-2.182297 L 13.624338,22.675735 c 3.927464,-1.533424 6.74049,-5.624031 6.74049,-10.433654 0,-6.120545 -4.554744,-11.081436 -10.179725,-11.081436 C 4.560122,1.160645 0,6.127014 0,12.242081 c 0,4.495048 2.45952,8.363144 5.99359,10.104828 l 0.682236,60.158676 c -0.119635,1.898422 0.642371,3.336502 2.902495,4.014976 L 132.61118,119.92377 c 4.38552,1.39751 8.98013,-3.71572 4.64958,-6.77928 v 0.01 h -0.002 z M 13.539183,15.861359 l -0.01508,0.01535 -0.02478,0.02521 -0.03988,0.04604 -0.0151,0.01534 -0.02478,0.02522 -0.04528,0.04603 -0.01508,0.01535 -0.02478,0.02521 -0.04527,0.04056 -0.01508,0.01534 -0.0248,0.02522 -0.04526,0.04054 -0.0151,0.01535 -0.03018,0.02521 -0.04526,0.04056 -0.0151,0.0099 -0.03018,0.02521 -0.04526,0.04056 -0.0151,0.01533 -0.03018,0.02522 -0.04526,0.03507 -0.0151,0.0099 -0.03018,0.02521 -0.06466,0.04604 -0.03449,0.0252 -0.04958,0.03507 -0.01508,0.0099 -0.0345,0.0252 -0.04957,0.03069 -0.0151,0.0099 -0.03449,0.02521 -0.04957,0.03068 -0.0151,0.0099 -0.03988,0.01974 -0.04957,0.03068 -0.0151,0.0099 -0.03988,0.0252 -0.04957,0.03069 -0.0097,0.0055 -0.03988,0.01972 -0.04958,0.03069 -0.01508,0.0055 -0.03988,0.01974 -0.05496,0.0252 -0.0097,0.0055 -0.03988,0.01972 -0.05496,0.02522 -0.0151,0.0055 -0.03988,0.01535 -0.05496,0.02521 -0.0151,0.0055 -0.03987,0.01534 -0.05498,0.02522 -0.0097,0.0055 -0.04526,0.01535 -0.05496,0.01974 -0.0097,0.0055 -0.04528,0.01535 -0.05496,0.01972 h -0.0097 l -0.04526,0.01535 -0.05498,0.01974 -0.0097,0.0055 -0.04957,0.0099 -0.05498,0.01974 -0.0097,0.0055 -0.04958,0.01535 -0.05496,0.01534 -0.0097,0.0055 -0.04958,0.01536 -0.05496,0.0098 h -0.0054 l -0.05496,0.01535 -0.05929,0.0099 h -0.0054 l -0.05498,0.0099 -0.05927,0.0098 h -0.0054 l -0.05496,0.0099 -0.05929,0.0099 h -0.0054 l -0.05498,0.0099 -0.05927,0.0099 h -0.0054 l -0.05496,0.0055 -0.05929,0.0055 h -0.0054 l -0.05929,0.0055 -0.05927,0.0055 h -0.0054 -0.05496 l -0.05929,0.0055 -0.05927,0.0055 h -0.05929 l -0.08945,-0.0055 h -0.03449 l -0.054978,-0.0055 H 9.915536 9.896147 l -0.089465,-0.0055 h -0.0097 l -0.074368,-0.0099 -0.045259,-0.0055 -0.045275,-0.0055 -0.074368,-0.0099 h -0.00969 l -0.085155,-0.0099 -0.024784,-0.0055 -0.064665,-0.0099 -0.054978,-0.0098 -0.030177,-0.0055 -0.085141,-0.01974 -0.085139,-0.01534 -0.034487,-0.0099 -0.049584,-0.01536 -0.064665,-0.01534 -0.015097,-0.0055 -0.08514,-0.02521 -0.015097,-0.0055 -0.064664,-0.01972 -0.045259,-0.01536 -0.039882,-0.01534 -0.070058,-0.02522 -0.089448,-0.03068 -0.024801,-0.0099 -0.054962,-0.01971 -0.049583,-0.02522 -0.024784,-0.0098 -0.074368,-0.03509 h -0.00539 l -0.074367,-0.03507 -0.030178,-0.01534 -0.045259,-0.02521 -0.059287,-0.03069 -0.015081,-0.0099 -0.067905,-0.04166 -0.015097,-0.0055 -0.05927,-0.03509 -0.039881,-0.02521 -0.030178,-0.01973 -0.070059,-0.04054 -0.00538,-0.0055 -0.070059,-0.04604 -0.0248,-0.01534 -0.045259,-0.03069 -0.049584,-0.03069 -0.01939,-0.01535 -0.070058,-0.05041 -0.00539,-0.0055 -0.064665,-0.04603 -0.030178,-0.02522 -0.039881,-0.03069 -0.054962,-0.04056 -0.0097,-0.0099 -0.064665,-0.05591 -0.015097,-0.01534 -0.049567,-0.04056 -0.034487,-0.03507 -0.030178,-0.02522 -0.059287,-0.0559 -0.00539,-0.0055 -0.064665,-0.06027 -0.019389,-0.01974 -0.039881,-0.04056 -0.039881,-0.04054 -0.019406,-0.01974 -0.059271,-0.06029 -0.00539,-0.0055 -0.049584,-0.06029 -0.024784,-0.03069 -0.030178,-0.03507 -0.045258,-0.05589 -0.0097,-0.0099 -0.054979,-0.06577 -0.00969,-0.01535 -0.039881,-0.05589 -0.030178,-0.04056 -0.019406,-0.02521 -0.049584,-0.07125 -0.049567,-0.07563 -0.049584,-0.07124 -0.034487,-0.05042 -0.015097,-0.01973 -0.045259,-0.07563 -0.00539,-0.0099 -0.039882,-0.06576 -0.045258,-0.07563 -0.039881,-0.06577 -0.00539,-0.0099 -0.039865,-0.07563 -0.0097,-0.01974 -0.030179,-0.06028 -0.0248,-0.04604 -0.015081,-0.03068 -0.039881,-0.0811 -0.034486,-0.08112 -0.015097,-0.03069 -0.01939,-0.05042 C 5.603431,13.772217 5.443907,13.032364 5.443907,12.253052 c 0,-2.839958 2.115711,-5.143944 4.723962,-5.143944 2.608249,0 4.723944,2.303986 4.723944,5.143944 0,1.417236 -0.522732,2.693084 -1.368797,3.619278 l 0.01617,-0.01097 z" /></g><g
       transform="translate(116,133.12039)"
       id="g28"><path
         id="path30"
         style="fill:#ff5b61;fill-opacity:1;fill-rule:nonzero;stroke:none"
         d="M 13.299273,92.909187 0.007264,4.568596 C -0.209222,3.134918 4.468119,1.182259 6.698546,4.059334 9.63047,0.413528 13.510554,1.90667 14.674165,4.423706 16.14481,1.927216 19.610664,0.543274 22.130434,4.278824 24.360861,1.402832 29.346277,3.40522 28.980957,5.817375 L 15.771166,92.994614 c -0.332014,1.298523 -2.302241,1.079033 -2.476053,-0.08002 l 0.0042,-0.0054 z" /></g></g></svg>