<?xml version="1.0" encoding="UTF-8" standalone="no"?>
<svg
   xmlns:dc="http://purl.org/dc/elements/1.1/"
   xmlns:cc="http://creativecommons.org/ns#"
   xmlns:rdf="http://www.w3.org/1999/02/22-rdf-syntax-ns#"
   xmlns:svg="http://www.w3.org/2000/svg"
   xmlns="http://www.w3.org/2000/svg"
   viewBox="0 0 682.66669 682.66669"
   height="682.66669"
   width="682.66669"
   xml:space="preserve"
   id="svg2"
   version="1.1"><metadata
     id="metadata8"><rdf:RDF><cc:Work
         rdf:about=""><dc:format>image/svg+xml</dc:format><dc:type
           rdf:resource="http://purl.org/dc/dcmitype/StillImage" /></cc:Work></rdf:RDF></metadata><defs
     id="defs6" /><g
     transform="matrix(1.3333333,0,0,-1.3333333,0,682.66667)"
     id="g10"><g
       id="g12"><path
         id="path14"
         style="fill:#ffca4f;fill-opacity:1;fill-rule:nonzero;stroke:none"
         d="M 256.00101,0 C 397,0 512,114.99899 512,255.99899 512,397 397,512 256.00101,512 115.00101,512 0,397 0,255.99899 0,114.99899 115.00101,0 256.00101,0 Z" /></g><g
       transform="translate(69.727585,89.335999)"
       id="g16"><path
         id="path18"
         style="fill:#8de896;fill-opacity:1;fill-rule:nonzero;stroke:none"
         d="m 63.34301,372.664 h 255.16798 l 57.901,-263.754 -21.206,-0.11398 L 354.698,15.675018 376.55399,15.561005 376.41101,0 H 31.480003 C -1.165997,2.614014 1.746,62.494019 0,78.522003 L 29.062004,346.642 c 0.112,11.91501 12.126007,26.022 34.281006,26.022 z" /></g><g
       transform="translate(66,89.335999)"
       id="g20"><path
         id="path22"
         style="fill:#222222;fill-opacity:1;fill-rule:nonzero;stroke:none"
         d="M 67.070587,372.664 H 91.508575 L 69.265579,0 31.122585,1.097015 C -0.773415,2.350006 -5.537416,78.600006 5.109584,106.245 l 27.681001,240.39801 c 0.111999,11.914 12.127002,26.02099 34.280002,26.02099 z" /></g><g
       transform="translate(78.790207,103.74799)"
       id="g24"><path
         id="path26"
         style="fill:#ffffff;fill-opacity:1;fill-rule:nonzero;stroke:none"
         d="M 26.859375,94.527008 H 360.73639 c -15.15,-31.942001 -14.75699,-63.443001 0,-94.526001 H 26.859375 c -35.814999,-9.99e-4 -35.810001,94.526001 0,94.526001 z" /></g><g
       transform="translate(78.797073,109.793)"
       id="g28"><path
         id="path30"
         style="fill:#ecf0f1;fill-opacity:1;fill-rule:nonzero;stroke:none"
         d="M 2.575502,62.496002 H 351.79352 c -0.20401,-0.945999 -0.39203,-1.893005 -0.56803,-2.837005 H 1.904505 c 0.209,0.957 0.428997,1.906005 0.670997,2.837005 z m 347.584008,-9.944 c -0.10998,-0.945999 -0.20401,-1.892006 -0.28399,-2.837006 H 0.381502 c 0.086,0.951001 0.194003,1.898007 0.314003,2.837006 z m -0.634,-9.944 c -0.014,-0.945999 -0.014,-1.891007 0,-2.837006 H 0.0105 c -0.014,0.945999 -0.014,1.891007 0,2.837006 z m 0.35498,-9.941986 c 0.083,-0.949 0.17603,-1.893013 0.28403,-2.838013 H 0.700502 c -0.119,0.941 -0.223997,1.888012 -0.310997,2.838013 z m 1.35102,-9.944001 c 0.17401,-0.944 0.36398,-1.891006 0.56799,-2.837005 H 2.589502 c -0.246,0.933998 -0.466003,1.880005 -0.674003,2.837005 z m 2.34298,-9.941009 C 353.84351,11.835007 354.1275,10.888 354.42551,9.944 H 6.120501 c -0.428,0.916001 -0.838002,1.865006 -1.220002,2.837006 z m 3.33502,-9.944 C 357.27551,1.891006 357.65451,0.944 358.0455,0 H 12.850504 c -0.872,0.866001 -1.699001,1.816006 -2.484001,2.837006 z" /></g><g
       transform="translate(120.68259,50.320007)"
       id="g32"><path
         id="path34"
         style="fill:#ff5b61;fill-opacity:1;fill-rule:nonzero;stroke:none"
         d="M 0,99.040985 H 52.173996 V 0 L 25.869995,32.309998 0,0 Z" /></g><g
       transform="translate(78.788116,105.24701)"
       id="g36"><path
         id="path38"
         style="fill:#dfe1e3;fill-opacity:1;fill-rule:nonzero;stroke:none"
         d="m 61.796463,73.208984 h 268.908977 15.33301 7.26898 c 1.80899,6.567002 4.271,13.148018 7.401,19.753022 0.008,0.021 0.02,0.044 0.032,0.065 H 336.87544 62.980449 26.859445 c -33.139,0 -35.615,-80.947006 -7.417,-93.027008 -9.549,27.878998 -1.921,73.208984 22.878,73.208984 h 19.475998 z" /></g><g
       transform="translate(236.85658,247.526)"
       id="g40"><path
         id="path42"
         style="fill:#ecf0f1;fill-opacity:1;fill-rule:nonzero;stroke:none"
         d="M 0,0 H 100.57901 V 7.213013 H 0 Z" /></g><g
       transform="translate(244.95259,233.88501)"
       id="g44"><path
         id="path46"
         style="fill:#ecf0f1;fill-opacity:1;fill-rule:nonzero;stroke:none"
         d="M 0,0 H 84.388977 V 5.401001 H 0 Z" /></g></g></svg>