<svg xmlns="http://www.w3.org/2000/svg" width="8pt" height="8pt" viewBox="0 0 8 8"><path d="M8 4a4 4 0 11-8 0 4 4 0 018 0z" fill="#eef165"/><path d="M5.512 1.905H2.778a.862.862 0 00-.861.862V5.5c0 .475.386.861.86.861h2.735a.862.862 0 00.862-.86V2.766a.862.862 0 00-.862-.862zm.247.514h.099v.755l-.753.002-.003-.755.657-.002zM3.51 3.677a.784.784 0 111.274.913.784.784 0 01-1.274-.913zM5.94 5.5a.428.428 0 01-.427.427H2.778a.428.428 0 01-.427-.427V3.677h.665a1.22 1.22 0 001.13 1.676 1.22 1.22 0 001.128-1.676h.666V5.5z" fill="#5a5700"/><path d="M5.372 1.905H2.638a.862.862 0 00-.862.862V5.5c0 .475.387.861.862.861h2.734a.862.862 0 00.862-.86V2.766a.862.862 0 00-.862-.862zm.247.514h.099v.755l-.753.002-.003-.755.657-.002zM3.37 3.677a.784.784 0 111.274.913.784.784 0 01-1.274-.913zM5.799 5.5a.428.428 0 01-.427.427H2.638a.428.428 0 01-.427-.427V3.677h.665a1.22 1.22 0 001.13 1.676 1.22 1.22 0 001.128-1.676h.665V5.5z" fill="#2d2d2d"/></svg>